<svg width="170" height="90" viewBox="0 0 170 90" fill="none" xmlns="http://www.w3.org/2000/svg">
<rect x="0.5" y="0.5" width="169" height="89" rx="3.5" stroke="#AFB1B8"/>
<path d="M69 20L76.3076 26.918H96.6924V46.2158L104 53.1338V20H69Z" fill="#AFB1B8"/>
<path d="M63 26.6265V58.8137H97V46.0195L76.5231 26.6344L63 26.6265ZM90.5231 54.1055H68.3801V32.4579H69.9453V52.6397H90.5231V54.1055Z" fill="#AFB1B8"/>
<path d="M71.9707 63.0991L72.7959 64.7959L73.6211 63.0991H74.2998L73.1035 65.3452V66.6538H72.4858V65.3452L71.2896 63.0991H71.9707ZM75.7939 63.5728L74.7319 66.6538H74.0898L75.4277 63.0991H75.8379L75.7939 63.5728ZM76.6826 66.6538L75.6182 63.5728L75.5718 63.0991H75.9844L77.3271 66.6538H76.6826ZM76.6313 65.3354V65.8213H74.6978V65.3354H76.6313ZM79.5195 64.7202L80.1323 64.3076C80.2349 64.2393 80.3081 64.1725 80.3521 64.1074C80.396 64.0407 80.418 63.9577 80.418 63.8584C80.418 63.7738 80.3854 63.6956 80.3203 63.624C80.2552 63.5524 80.1632 63.5166 80.0444 63.5166C79.9614 63.5166 79.8914 63.5361 79.8345 63.5752C79.7775 63.6126 79.7344 63.6631 79.7051 63.7266C79.6774 63.7884 79.6636 63.8576 79.6636 63.9341C79.6636 64.0073 79.6823 64.083 79.7197 64.1611C79.7572 64.2376 79.8084 64.3182 79.8735 64.4028C79.9386 64.4858 80.0119 64.5754 80.0933 64.6714L81.7729 66.6538H81.0918L79.7197 65.04C79.6009 64.8968 79.4959 64.7658 79.4048 64.647C79.3136 64.5265 79.2428 64.4102 79.1924 64.2979C79.1419 64.1839 79.1167 64.0667 79.1167 63.9463C79.1167 63.7607 79.1549 63.6012 79.2314 63.4678C79.3079 63.3343 79.4162 63.2318 79.5562 63.1602C79.6961 63.0869 79.8597 63.0503 80.0469 63.0503C80.2275 63.0503 80.383 63.0869 80.5132 63.1602C80.645 63.2318 80.7459 63.327 80.8159 63.4458C80.8875 63.5646 80.9233 63.6948 80.9233 63.8364C80.9233 63.9487 80.903 64.0513 80.8623 64.144C80.8216 64.2368 80.7655 64.3215 80.6938 64.3979C80.6222 64.4744 80.5392 64.5469 80.4448 64.6152L79.7002 65.1572C79.6139 65.2272 79.5496 65.2948 79.5073 65.3599C79.4666 65.4233 79.4398 65.4819 79.4268 65.5356C79.4137 65.5894 79.4072 65.6366 79.4072 65.6772C79.4072 65.7814 79.4292 65.8758 79.4731 65.9604C79.5187 66.0451 79.5846 66.1126 79.6709 66.1631C79.7588 66.2119 79.8654 66.2363 79.9907 66.2363C80.1258 66.2363 80.2568 66.2062 80.3838 66.146C80.5107 66.0841 80.6247 65.9971 80.7256 65.8848C80.8265 65.7725 80.9062 65.6382 80.9648 65.4819C81.0251 65.3257 81.0552 65.1523 81.0552 64.9619H81.563C81.563 65.1344 81.5459 65.298 81.5117 65.4526C81.4792 65.6073 81.4263 65.7505 81.353 65.8823C81.2814 66.0142 81.187 66.1322 81.0698 66.2363C81.0584 66.2477 81.0454 66.2624 81.0308 66.2803C81.0177 66.2965 81.0047 66.3104 80.9917 66.3218C80.8517 66.4504 80.6947 66.5464 80.5205 66.6099C80.348 66.6717 80.1641 66.7026 79.9688 66.7026C79.7327 66.7026 79.5285 66.6595 79.356 66.5732C79.1834 66.487 79.05 66.3682 78.9556 66.2168C78.8628 66.0654 78.8164 65.8921 78.8164 65.6968C78.8164 65.5519 78.8465 65.425 78.9067 65.3159C78.967 65.2052 79.0492 65.1027 79.1533 65.0083C79.2591 64.9123 79.3812 64.8162 79.5195 64.7202ZM85.5229 65.4966H86.1333C86.1138 65.7293 86.0487 65.9368 85.938 66.1191C85.8273 66.2998 85.6719 66.4422 85.4717 66.5464C85.2715 66.6506 85.0282 66.7026 84.7417 66.7026C84.522 66.7026 84.3242 66.6636 84.1484 66.5854C83.9727 66.5057 83.8221 66.3934 83.6968 66.2485C83.5715 66.1021 83.4754 65.9255 83.4087 65.7188C83.3436 65.512 83.311 65.2809 83.311 65.0254V64.73C83.311 64.4744 83.3444 64.2433 83.4111 64.0366C83.4795 63.8299 83.5771 63.6533 83.7041 63.5068C83.8311 63.3587 83.9832 63.2456 84.1606 63.1675C84.3397 63.0894 84.5407 63.0503 84.7637 63.0503C85.0469 63.0503 85.2861 63.1024 85.4814 63.2065C85.6768 63.3107 85.8281 63.4548 85.9355 63.6387C86.0446 63.8226 86.1113 64.0334 86.1357 64.271H85.5254C85.5091 64.118 85.4733 63.987 85.418 63.8779C85.3643 63.7689 85.2845 63.6859 85.1787 63.6289C85.0729 63.5703 84.9346 63.541 84.7637 63.541C84.6237 63.541 84.5016 63.5671 84.3975 63.6191C84.2933 63.6712 84.2062 63.7477 84.1362 63.8486C84.0662 63.9495 84.0133 64.0741 83.9775 64.2222C83.9434 64.3687 83.9263 64.5363 83.9263 64.7251V65.0254C83.9263 65.2044 83.9417 65.3672 83.9727 65.5137C84.0052 65.6585 84.054 65.783 84.1191 65.8872C84.1859 65.9914 84.2705 66.0719 84.373 66.1289C84.4756 66.1859 84.5985 66.2144 84.7417 66.2144C84.9159 66.2144 85.0566 66.1867 85.1641 66.1313C85.2731 66.076 85.3553 65.9954 85.4106 65.8896C85.4676 65.7822 85.505 65.6512 85.5229 65.4966ZM89.5244 64.7788V64.9741C89.5244 65.2427 89.4894 65.4836 89.4194 65.6968C89.3494 65.91 89.2493 66.0915 89.1191 66.2412C88.9906 66.391 88.8359 66.5057 88.6553 66.5854C88.4746 66.6636 88.2744 66.7026 88.0547 66.7026C87.8366 66.7026 87.6372 66.6636 87.4565 66.5854C87.2775 66.5057 87.1221 66.391 86.9902 66.2412C86.8584 66.0915 86.7559 65.91 86.6826 65.6968C86.611 65.4836 86.5752 65.2427 86.5752 64.9741V64.7788C86.5752 64.5103 86.611 64.2702 86.6826 64.0586C86.7542 63.8454 86.8551 63.6639 86.9854 63.5142C87.1172 63.3628 87.2726 63.248 87.4517 63.1699C87.6323 63.0902 87.8317 63.0503 88.0498 63.0503C88.2695 63.0503 88.4697 63.0902 88.6504 63.1699C88.8311 63.248 88.9865 63.3628 89.1167 63.5142C89.2469 63.6639 89.347 63.8454 89.417 64.0586C89.4886 64.2702 89.5244 64.5103 89.5244 64.7788ZM88.9116 64.9741V64.7739C88.9116 64.5754 88.8921 64.4004 88.853 64.249C88.8156 64.096 88.7594 63.9683 88.6846 63.8657C88.6113 63.7616 88.521 63.6834 88.4136 63.6313C88.3062 63.5776 88.1849 63.5508 88.0498 63.5508C87.9147 63.5508 87.7943 63.5776 87.6885 63.6313C87.5827 63.6834 87.4924 63.7616 87.4175 63.8657C87.3442 63.9683 87.2881 64.096 87.249 64.249C87.21 64.4004 87.1904 64.5754 87.1904 64.7739V64.9741C87.1904 65.1727 87.21 65.3485 87.249 65.5015C87.2881 65.6545 87.3451 65.7839 87.4199 65.8896C87.4964 65.9938 87.5876 66.0728 87.6934 66.1265C87.7992 66.1785 87.9196 66.2046 88.0547 66.2046C88.1914 66.2046 88.3127 66.1785 88.4185 66.1265C88.5243 66.0728 88.6138 65.9938 88.687 65.8896C88.7603 65.7839 88.8156 65.6545 88.853 65.5015C88.8921 65.3485 88.9116 65.1727 88.9116 64.9741Z" fill="#AFB1B8"/>
</svg>
